<svg xmlns="http://www.w3.org/2000/svg" viewBox="0 0 64 64"><defs><style>.cls-1{fill:#b0bec5;}.cls-2{fill:#cfd8dd;}.cls-3{fill:#00cde2;}</style></defs><title>Space Satellite</title><g id="Layer_2" data-name="Layer 2"><g id="Layer_1-2" data-name="Layer 1"><rect class="cls-1" x="-2.36" y="41.12" width="46.09" height="4.39" transform="translate(-24.57 27.31) rotate(-45)"/><rect class="cls-1" x="28.58" y="17.87" width="4.39" height="30.72" transform="translate(-14.49 31.49) rotate(-45)"/><rect class="cls-1" x="33.23" y="13.21" width="4.39" height="30.72" transform="translate(-9.83 33.42) rotate(-45)"/><path class="cls-2" d="M16.8,34.78,29.22,47.2a2.19,2.19,0,0,0,3.1,0l15-15a8.78,8.78,0,0,0,2.48-5l.52-3.62a8.78,8.78,0,0,0-2.48-7.45h0a8.78,8.78,0,0,0-7.45-2.48l-3.62.52a8.78,8.78,0,0,0-5,2.48l-15,15A2.19,2.19,0,0,0,16.8,34.78Z"/><path class="cls-2" d="M27.27,61.56h0a1.6,1.6,0,0,0,.47-1c.14-2-.08-8.69-7.83-16.45s-14.43-8-16.45-7.83a1.6,1.6,0,0,0-1,.47h0a1.63,1.63,0,0,0,0,2.3L25,61.56A1.63,1.63,0,0,0,27.27,61.56Z"/><circle class="cls-2" cx="4.39" cy="59.61" r="4.39" transform="translate(-40.87 20.56) rotate(-45)"/><rect class="cls-3" x="41.07" y="38.87" width="19.75" height="19.75" rx="2.19" ry="2.19" transform="translate(-19.55 50.3) rotate(-45)"/><rect class="cls-3" x="5.38" y="3.18" width="19.75" height="19.75" rx="2.19" ry="2.19" transform="translate(-4.77 14.61) rotate(-45)"/><circle class="cls-1" cx="33.87" cy="30.13" r="6.58" transform="translate(-11.38 32.78) rotate(-45)"/><circle class="cls-3" cx="33.87" cy="30.13" r="4.39" transform="translate(-11.38 32.78) rotate(-45)"/></g></g></svg>
